<svg width="100" height="89" viewBox="0 0 100 89" fill="none" xmlns="http://www.w3.org/2000/svg">
<path d="M99.5439 3.80084L52.6279 87.6948C51.6592 89.4269 49.1706 89.4371 48.1874 87.7134L0.341146 3.80892C-0.729986 1.93055 0.876223 -0.344667 3.00478 0.0357896L49.971 8.43073C50.2706 8.48428 50.5773 8.48377 50.8769 8.42918L96.8609 0.0478255C98.9824 -0.338828 100.596 1.91877 99.5439 3.80084Z" fill="url(#paint0_linear_203_14)"/>
<path d="M20 60.104C20 60.744 17.9947 61.064 13.984 61.064L10.4 60.872C8.26667 60.7014 7.2 60.4027 7.2 59.976V17.032C7.2 16.3067 9.33333 15.944 13.6 15.944C17.8667 15.944 20 16.3067 20 17.032V33.416L27.808 17.032C28.1067 16.4347 29.8133 16.136 32.928 16.136C38.6027 16.136 41.5893 16.6267 41.888 17.608C41.888 17.6934 41.8667 17.7787 41.824 17.864L30.688 37.96L43.616 55.816C43.616 55.9014 43.2107 56.264 42.4 56.904C40.4373 58.6107 38.1333 59.9547 35.488 60.936C34.6773 61.2347 33.8667 61.384 33.056 61.384L31.52 61.256C30.1547 60.9147 29.088 60.04 28.32 58.632L21.024 44.68H20V60.104Z" fill="#FFE100"/>
<path d="M91.6875 61.064C87.8902 61.064 85.9915 60.6374 85.9915 59.784L84.6475 34.12L76.8395 60.104C76.6688 60.616 75.2182 60.872 72.4875 60.872C69.7568 60.872 68.3488 60.6374 68.2635 60.168L60.1995 33.864L59.3035 59.4C59.2608 60.04 58.4502 60.488 56.8715 60.744C55.2928 60.9574 53.9702 61.064 52.9035 61.064C51.8795 61.064 50.8768 61 49.8955 60.872C47.8475 60.5734 46.8448 60.04 46.8875 59.272L48.3595 17.672C48.3595 16.648 50.9622 16.136 56.1675 16.136C57.7035 16.136 59.5808 16.264 61.7995 16.52C64.0182 16.7334 65.2555 17.1814 65.5115 17.864L72.6795 38.024L78.9515 17.8C79.3355 16.6907 82.2795 16.136 87.7835 16.136C89.3622 16.136 91.2395 16.264 93.4155 16.52C95.6342 16.7334 96.7435 17.1387 96.7435 17.736L98.5995 59.72C98.5995 60.1894 97.7675 60.5307 96.1035 60.744C94.4395 60.9574 92.9675 61.064 91.6875 61.064Z" fill="#FFE100"/>
<defs>
<linearGradient id="paint0_linear_203_14" x1="-0.827056" y1="-2.96246" x2="57.5635" y2="76.3366" gradientUnits="userSpaceOnUse">
<stop stop-color="#2F98BA"/>
<stop offset="0.423077" stop-color="#616AD8"/>
<stop offset="0.576923" stop-color="#6766DA"/>
<stop offset="0.884615" stop-color="#BD34FE"/>
</linearGradient>
</defs>
</svg>
